<svg xmlns="http://www.w3.org/2000/svg" viewBox="424 152 407 559">
  <!-- Incant wisp mascot, master trace in reference pixel units. Traced from
       handoffs/0004-wisp-mascot/reference.png by tools/trace-mascot.mjs (see brand/README.md). -->
  <path fill="#482AC4" d="M702.97 156C718.11 154.3 735.38 160.39 749.26 166.13C786.16 181.4 823.84 209.72 826.65 252.72C827.56 266.46 824.39 281.05 817.16 292.88C805.86 311.39 787.96 323.69 769.99 335.12C751.03 347.19 732.8 360 735.71 385.28C737.66 402.21 751.32 417.12 762.75 428.68C783.41 449.56 806.93 467.66 818.89 495.38C826.09 512.08 827.29 530.35 825.71 548.25C820.07 612.12 774.14 659.75 719.16 687.93C702.83 696.3 684.5 705.42 666.09 707.49C669.22 703.44 672.76 699.56 674.88 694.77C683.65 675.03 666.91 662.56 649.88 657.69C635.85 653.68 621.1 652.3 606.7 650.27C591.22 648.08 575.93 645.04 560.74 641.34C498.28 626.13 446.33 588.5 430.41 523.73C426.35 507.19 425.6 488.96 427.92 472.09C438.8 393.1 502.92 333.27 575.49 307.02C614.79 292.8 673.41 282.12 706.66 259.7C749.51 230.81 748.87 181.27 702.97 156Z"/>
  <path fill="#FFFFFF" d="M616 471.93C599.51 472.14 592.42 490.81 590.64 504.4C587.29 530.13 595.61 560.74 615.07 578.58C620.43 583.5 627.08 587.44 634.55 587.49C651.17 587.6 658.42 569.5 660.37 555.68C663.64 532.51 656.9 507.52 642.8 488.89C636.57 480.65 627.13 471.79 616 471.93ZM497 446.78C487.43 449.07 483.01 460.83 481.37 469.4C477.48 489.69 479.99 511.12 489.15 529.69C493.2 537.91 502.26 550.13 512.94 547.91C522.47 545.94 527.6 534.29 529.3 525.76C533.35 505.41 530.83 482.98 521.06 464.51C516.56 456.01 508.21 444.1 497 446.78Z"/>
</svg>
