<svg xmlns="http://www.w3.org/2000/svg" viewBox="0 0 512 512" width="512" height="512">
  <!--
    Incant application icon, Phase 0. A spell-mark: a four-point spark inside an
    open ring, on a dark rounded tile. Source of public/icon.png (rendered by
    scripts/render-icon.mjs). Original artwork for this project.
  -->
  <defs>
    <linearGradient id="tile" x1="0" y1="0" x2="0" y2="1">
      <stop offset="0" stop-color="#232a36" />
      <stop offset="1" stop-color="#11141a" />
    </linearGradient>
    <linearGradient id="spark" x1="0" y1="0" x2="1" y2="1">
      <stop offset="0" stop-color="#ffe08a" />
      <stop offset="1" stop-color="#ffb23d" />
    </linearGradient>
    <linearGradient id="ring" x1="0" y1="1" x2="1" y2="0">
      <stop offset="0" stop-color="#5b8fe6" />
      <stop offset="1" stop-color="#9cc4ff" />
    </linearGradient>
  </defs>
  <rect x="24" y="24" width="464" height="464" rx="104" fill="url(#tile)" />
  <rect x="24.5" y="24.5" width="463" height="463" rx="103.5" fill="none" stroke="#3a4352" stroke-width="3" />
  <path d="M256 104 A152 152 0 1 1 148.5 148.5" fill="none" stroke="url(#ring)" stroke-width="28" stroke-linecap="round" />
  <circle cx="148.5" cy="148.5" r="22" fill="#9cc4ff" />
  <path d="M256 150 C266 220 292 246 362 256 C292 266 266 292 256 362 C246 292 220 266 150 256 C220 246 246 220 256 150 Z" fill="url(#spark)" />
</svg>
